Coordinates
version=1
nRows=14
nColumns=36
inDegrees=yes

Units are S.I. units (second, meters, Newtons, ...)
If the header above contains a line with 'inDegrees', this indicates whether rotational values are in degrees (yes) or radians (no).

endheader
time	pelvis_tilt	pelvis_list	pelvis_rotation	pelvis_tx	pelvis_ty	pelvis_tz	hip_flexion_r	hip_adduction_r	hip_rotation_r	knee_angle_r	knee_angle_r_beta	ankle_angle_r	subtalar_angle_r	mtp_angle_r	hip_flexion_l	hip_adduction_l	hip_rotation_l	knee_angle_l	knee_angle_l_beta	ankle_angle_l	subtalar_angle_l	mtp_angle_l	lumbar_extension	lumbar_bending	lumbar_rotation	arm_flex_r	arm_add_r	arm_rot_r	elbow_flex_r	pro_sup_r	arm_flex_l	arm_add_l	arm_rot_l	elbow_flex_l	pro_sup_l
      6.66666670	    -11.58393224	     -1.07599239	     -0.06305054	      0.36695272	      0.85961110	     -0.09732592	     25.27233739	     -1.49082172	      0.49013662	     25.60304882	      0.44685750	     10.38296067	    -23.90577069	     -7.49999987	     27.46172191	     -3.48581812	      4.86471061	     27.74398874	      0.48422395	     11.83616635	    -11.98330647	     -7.49999987	     -9.83484656	      0.37657311	     -2.24629551	      6.99800267	    -11.68316322	     19.53521341	     28.43017001	     84.30987152	      4.92325519	     -8.94979405	     -3.26767084	     32.39252468	     80.07245725
      6.68333330	    -11.07845648	     -1.19954049	     -0.03855381	      0.36837497	      0.86495816	     -0.09610885	     23.38278450	     -1.16955428	      0.39027064	     23.26193454	      0.40599735	      9.92094008	    -23.42579199	     -7.49999987	     25.70185026	     -3.66849191	      5.22038003	     25.50625382	      0.44516811	     10.79650177	    -12.33088224	     -7.49999987	     -9.72167766	      0.33684287	     -2.23038320	      6.97869546	    -11.54746881	     19.56372713	     28.41877311	     83.92348562	      4.92386506	     -9.03065641	     -2.84955767	     32.68429027	     80.12567980
      6.70000000	    -10.58910985	     -1.25263884	     -0.03109687	      0.37192509	      0.86771302	     -0.09857856	     21.56457179	     -1.06406946	      0.39440510	     21.14200074	      0.36899752	      9.20186637	    -23.30813576	     -7.49999987	     24.03583301	     -3.73469301	      5.40391162	     23.52134009	      0.41052483	     10.09028724	    -12.46263565	     -7.49999987	     -9.53885944	      0.35735809	     -2.23384740	      6.89505397	    -11.54124357	     19.67697460	     28.57706316	     82.76423465	      4.86491238	     -9.09265283	     -2.18779827	     33.09770429	     79.53069403
      6.71666670	    -10.16233076	     -1.29376513	     -0.04603627	      0.37561933	      0.87082017	     -0.09993609	     19.84837693	     -1.01018784	      0.41532934	     19.09287205	      0.33323348	      8.48096527	    -23.04795500	     -7.49999987	     22.43207016	     -3.73595999	      5.58862952	     21.63590865	      0.37761784	      9.44195097	    -12.48539898	     -7.49999987	     -9.14646570	      0.37542808	     -2.27656249	      6.86736680	    -11.52842586	     19.81201503	     28.42113752	     82.72019078	      4.82366629	     -9.04707718	     -1.64852729	     33.12689202	     79.75998114
      6.73333330	     -9.50646453	     -1.24741413	     -0.11493291	      0.38433650	      0.87864910	     -0.10206235	     17.49853299	     -1.13915156	      0.42104144	     16.60809438	      0.28986593	      7.64361056	    -22.21112228	     -7.49999987	     20.16140425	     -3.62318734	      5.74794802	     19.18465002	      0.33483531	      8.77466973	    -11.96622410	     -7.49999987	     -8.84314985	      0.40654476	     -2.27523044	      6.61681064	    -11.67275238	     19.92476578	     28.46177866	     82.97636819	      4.54843840	     -8.95367151	     -1.12929354	     33.42258674	     80.22349233
      6.75000000	     -8.44194098	     -1.19633018	     -0.17192335	      0.38651065	      0.88147071	     -0.10198047	     14.85061453	     -1.24462156	      0.61128279	     14.20902558	      0.24799428	      7.07310958	    -21.38955178	     -7.49999987	     17.49363691	     -3.49638673	      5.81817059	     16.68753469	      0.29125242	      8.22965161	    -11.83015911	     -7.49999987	     -9.23081762	      0.35413944	     -2.10182475	      6.39645476	    -11.68028602	     18.97634756	     28.48592723	     85.33482692	      4.69903526	     -8.87991730	     -0.63898084	     33.44586211	     84.09200221
      6.76666670	     -7.83723096	     -1.12143859	     -0.30128430	      0.38925400	      0.88397364	     -0.10287157	     12.95888260	     -1.33833723	      0.64491196	     12.13809272	      0.21184968	      6.77090031	    -20.55902192	     -7.49999987	     15.51596845	     -3.36444209	      5.96352352	     14.59190842	      0.25467685	      7.77097925	    -11.67197823	     -7.49999987	     -8.97068822	      0.29542347	     -2.12043560	      6.32339877	    -11.67977250	     19.01388662	     28.13976152	     84.71789774	      4.57771807	     -8.72770131	     -0.39226356	     33.37735835	     83.58320524
      6.78333330	     -7.31012615	     -1.08770446	     -0.27965480	      0.38949319	      0.88844550	     -0.10105622	     11.26681459	     -1.31556894	      0.81847387	     10.14036770	      0.17698280	      6.29346815	    -19.92852189	     -7.49999987	     13.92539646	     -3.32800096	      6.03494200	     12.83702357	      0.22404833	      6.97970179	    -11.76962210	     -7.49999987	     -8.88262258	      0.25811268	     -2.20163805	      6.26908202	    -11.70005794	     19.10163317	     28.27751870	     84.82543107	      4.51301727	     -8.72884968	      0.07406402	     33.71229665	     83.80564182
      6.80000000	     -6.72231063	     -1.07516797	     -0.28942269	      0.39238547	      0.89293138	     -0.10138221	      9.56976130	     -1.24676174	      0.68694767	      8.24636618	      0.14392624	      5.83045886	    -19.13699673	     -7.49999987	     12.29457032	     -3.30838014	      6.10230180	     11.02965540	      0.19250380	      6.23451287	    -11.50346919	     -7.49999987	     -8.83026348	      0.22911067	     -2.22241697	      6.22543330	    -11.69486336	     19.30422698	     28.32006558	     84.23698266	      4.62846916	     -8.79301135	      1.10069905	     33.71328237	     83.47918563
      6.81666670	     -6.30076611	     -1.07162594	     -0.32836126	      0.39330828	      0.89500192	     -0.10208055	      8.29757379	     -1.19444072	      0.63730682	      6.77823560	      0.11830253	      5.57417032	    -18.39962278	     -7.49999987	     11.07185169	     -3.32267279	      5.95897159	      9.67158759	      0.16880105	      5.88185342	    -11.04738419	     -7.49999987	     -8.71239713	      0.26214044	     -2.24929646	      6.25536714	    -11.56702383	     19.16639037	     28.15026606	     82.54046042	      4.79623002	     -8.62489640	      1.45571552	     33.48768409	     81.85558306
      6.83333330	     -6.02268427	     -1.06201187	     -0.32905376	      0.39490218	      0.89595421	     -0.10143721	      7.27077317	     -1.14552532	      0.70426476	      5.48234464	      0.09568496	      4.96892762	    -18.23228107	     -7.49999987	     10.06004539	     -3.34177909	      5.98933892	      8.43091921	      0.14714730	      5.30740006	    -10.92288868	     -7.49999987	     -8.51348546	      0.24325719	     -2.36353053	      6.23891462	    -11.50094874	     19.23826033	     28.25342108	     82.14223863	      4.78492807	     -8.59978505	      1.84996428	     33.58712826	     81.50091467
      6.85000000	     -5.46430132	     -1.09170750	     -0.43232583	      0.39540368	      0.89576133	     -0.10052125	      6.08967092	     -1.06997112	      0.64406833	      4.43376054	      0.07738372	      4.98720733	    -17.45815389	     -7.49999987	      8.83768643	     -3.40375753	      5.98441456	      7.39790696	      0.12911783	      5.22750969	    -10.45383793	     -7.49999987	     -8.73264438	      0.25452320	     -2.23504214	      6.29826173	    -11.51983495	     19.07025449	     28.29757488	     85.23826229	      5.15505242	     -8.64975169	      2.67541225	     33.51371356	     84.63928133
      6.86666670	     -5.06280058	     -1.06048040	     -0.54355002	      0.39675760	      0.89562013	     -0.09924310	      5.16375611	     -1.01652556	      0.61915827	      3.58417038	      0.06255557	      4.80433320	    -17.27525507	     -7.49999987	      7.90626576	     -3.41746950	      5.99424707	      6.60474080	      0.11527447	      5.00638916	    -10.43121011	     -7.49999987	     -8.75886999	      0.17794699	     -2.22280127	      6.42472718	    -11.36334698	     19.08271043	     28.27802263	     84.20073169	      5.33464263	     -8.57586840	      2.95821832	     33.45904551	     83.61966478
      6.88333330	     -4.82061912	     -1.04716717	     -0.58010972	      0.39625934	      0.89536818	     -0.09864506	      4.54050910	     -0.96026852	      0.63946520	      2.94225581	      0.05135205	      4.72014282	    -17.00648142	     -7.49999987	      7.30556635	     -3.44199169	      6.05555023	      5.99731977	      0.10467298	      4.84085949	    -10.48543563	     -7.49999987	     -8.69175298	      0.10903279	     -2.29541779	      6.51360799	    -11.20187850	     19.15070370	     28.35623803	     83.49852246	      5.54612902	     -8.59817331	      3.30874185	     33.48424389	     82.93993887
